<?xml version="1.0" standalone="no"?>
<!DOCTYPE svg PUBLIC "-//W3C//DTD SVG 20010904//EN"
 "http://www.w3.org/TR/2001/REC-SVG-20010904/DTD/svg10.dtd">
<svg version="1.0" xmlns="http://www.w3.org/2000/svg"
 width="2254.000000pt" height="2254.000000pt" viewBox="0 0 2254.000000 2254.000000"
 preserveAspectRatio="xMidYMid meet">
<metadata>
Created by potrace 1.14, written by Peter Selinger 2001-2017
</metadata>
<g transform="translate(0.000000,2254.000000) scale(0.100000,-0.100000)"
fill="#000000" stroke="none">
<path d="M10790 22459 c-396 -12 -523 -19 -580 -34 -56 -14 -144 -26 -323 -44
-81 -8 -103 -14 -127 -34 -23 -20 -46 -27 -104 -32 -61 -6 -85 -14 -128 -41
-33 -22 -65 -34 -88 -34 -19 -1 -53 -7 -75 -15 -32 -12 -51 -13 -98 -4 -48 10
-64 9 -102 -5 -36 -14 -72 -17 -182 -15 -105 2 -151 -1 -193 -13 -30 -9 -102
-19 -160 -22 -95 -5 -112 -9 -175 -41 -38 -19 -97 -40 -130 -45 -33 -6 -77
-17 -98 -25 -20 -8 -55 -15 -76 -15 -23 0 -48 -8 -63 -20 -34 -26 -71 -40
-143 -51 -33 -6 -75 -19 -93 -29 -18 -11 -66 -24 -107 -29 -55 -7 -85 -16
-108 -34 -35 -26 -104 -52 -182 -66 -49 -9 -139 -48 -224 -96 -27 -16 -60 -25
-86 -25 -40 0 -119 -32 -177 -72 -15 -10 -45 -25 -68 -33 -23 -8 -54 -24 -70
-35 -16 -12 -51 -27 -78 -35 -27 -8 -57 -24 -67 -35 -10 -11 -37 -25 -59 -31
-23 -6 -62 -24 -87 -40 -25 -16 -51 -29 -57 -29 -7 0 -29 -15 -49 -33 -40 -35
-102 -79 -196 -135 -30 -18 -63 -43 -74 -54 -10 -11 -39 -31 -64 -43 -25 -13
-51 -31 -58 -39 -7 -9 -32 -21 -55 -27 -79 -21 -200 -114 -370 -282 -49 -49
-105 -99 -125 -111 -48 -31 -214 -195 -244 -243 -14 -21 -48 -60 -76 -88 -28
-27 -56 -65 -62 -85 -17 -54 -74 -107 -134 -125 -36 -10 -67 -29 -101 -62 -28
-27 -76 -64 -108 -83 -32 -19 -104 -79 -160 -133 -55 -55 -117 -109 -136 -122
-43 -27 -277 -264 -319 -321 -16 -23 -72 -83 -124 -133 -85 -82 -97 -98 -108
-144 -9 -38 -24 -64 -60 -102 -27 -29 -56 -72 -67 -103 -11 -29 -33 -69 -48
-89 -15 -19 -40 -63 -56 -97 -17 -33 -43 -82 -59 -107 -19 -31 -32 -65 -35
-100 -7 -66 -22 -119 -35 -119 -16 0 -39 -58 -50 -132 -6 -40 -20 -89 -31
-108 -20 -32 -36 -106 -58 -255 -4 -33 -16 -80 -25 -105 -19 -51 -24 -136 -32
-475 -7 -309 17 -630 52 -710 18 -42 44 -201 45 -269 0 -26 9 -53 25 -76 29
-41 33 -92 20 -220 -5 -58 -12 -81 -30 -100 -13 -14 -28 -45 -34 -68 -5 -24
-18 -54 -29 -65 -21 -25 -67 -150 -77 -214 -4 -24 -11 -45 -16 -48 -17 -11
-50 -141 -60 -233 -5 -52 -18 -117 -28 -145 -30 -83 -46 -325 -46 -697 1 -513
21 -763 74 -914 12 -33 21 -75 21 -95 0 -20 7 -61 15 -91 8 -30 15 -73 15 -95
0 -22 12 -65 26 -95 26 -55 53 -182 54 -252 0 -20 5 -40 10 -43 24 -15 41 -72
56 -186 10 -81 22 -131 34 -148 12 -18 20 -53 24 -112 8 -117 33 -244 57 -288
12 -23 19 -55 19 -91 0 -62 33 -229 61 -308 11 -30 19 -67 19 -83 0 -17 6 -42
14 -57 7 -15 16 -49 20 -76 3 -27 17 -74 31 -104 14 -30 25 -73 25 -96 0 -76
19 -158 45 -196 17 -25 27 -55 31 -100 4 -36 18 -94 31 -130 14 -36 31 -92 39
-124 8 -33 28 -80 44 -104 22 -33 31 -61 36 -113 5 -51 14 -81 36 -115 17 -27
35 -77 44 -121 9 -41 27 -98 41 -126 15 -29 29 -78 32 -113 4 -35 14 -71 22
-81 8 -10 20 -30 27 -45 16 -38 30 -35 75 13 62 65 78 57 150 -76 33 -60 66
-135 74 -165 7 -30 25 -79 39 -109 17 -38 28 -91 39 -185 14 -127 35 -252 56
-346 6 -25 17 -101 25 -170 8 -69 20 -154 27 -190 6 -36 11 -112 10 -169 -1
-89 -4 -107 -21 -124 -20 -20 -20 -20 -55 2 -47 29 -144 134 -187 202 -79 126
-98 153 -170 243 -256 321 -456 490 -722 613 -86 39 -82 39 -240 32 -18 -1
-43 2 -56 6 -19 6 -24 2 -38 -30 -13 -32 -14 -62 -8 -184 9 -186 11 -193 65
-187 31 4 49 0 68 -13 53 -37 168 -90 391 -177 96 -38 239 -139 314 -223 67
-76 150 -202 202 -311 20 -41 44 -91 55 -111 10 -20 27 -63 38 -95 11 -32 50
-131 86 -219 37 -88 76 -182 87 -210 43 -107 117 -274 156 -347 22 -42 46 -94
52 -115 13 -39 44 -110 87 -198 13 -27 28 -66 33 -85 5 -19 24 -80 43 -135 20
-55 50 -147 67 -205 18 -58 65 -206 106 -330 93 -287 101 -328 79 -386 -20
-53 -82 -104 -163 -134 -46 -18 -71 -20 -142 -17 -47 3 -102 8 -122 12 -34 6
-38 5 -38 -13 0 -24 18 -32 74 -32 32 0 50 -6 70 -25 15 -14 39 -28 53 -31 21
-6 31 -1 52 25 26 31 28 31 112 31 74 0 90 3 115 22 22 18 45 24 101 27 l73 3
63 -63 c75 -77 134 -163 153 -224 7 -25 24 -60 38 -78 13 -17 29 -52 36 -77 6
-25 21 -55 32 -66 10 -12 26 -43 33 -68 8 -26 24 -59 35 -74 12 -15 47 -67 80
-117 32 -49 75 -112 94 -140 20 -27 42 -73 51 -101 8 -28 22 -57 30 -64 8 -7
24 -33 35 -58 11 -25 31 -55 45 -68 14 -13 25 -33 25 -46 0 -41 11 -65 36 -79
14 -7 43 -47 66 -88 51 -95 102 -173 123 -191 9 -8 28 -35 41 -62 13 -26 28
-48 33 -48 5 0 14 -13 21 -30 7 -16 26 -45 44 -64 17 -19 47 -55 66 -81 19
-25 47 -60 61 -78 15 -17 36 -51 48 -74 11 -23 38 -58 58 -78 21 -20 45 -47
53 -61 9 -13 62 -71 118 -128 56 -57 102 -109 102 -116 0 -6 62 -73 138 -149
75 -76 148 -158 162 -182 37 -65 235 -264 315 -317 39 -26 112 -89 163 -139
50 -51 96 -93 102 -93 5 0 51 -41 102 -91 51 -51 116 -109 145 -130 28 -21 55
-44 58 -50 4 -6 28 -20 54 -30 31 -13 81 -54 151 -124 103 -102 137 -125 185
-125 15 0 45 -22 88 -64 48 -47 77 -68 109 -76 47 -13 89 -41 152 -104 44 -44
101 -76 136 -76 11 0 33 -13 48 -30 19 -20 43 -33 78 -40 42 -9 61 -21 110
-71 47 -48 70 -63 114 -76 30 -8 64 -24 75 -34 11 -10 47 -30 80 -44 33 -15
85 -42 115 -60 30 -18 73 -38 94 -44 22 -6 49 -22 60 -36 14 -17 37 -28 70
-34 31 -6 57 -18 73 -35 14 -16 39 -28 64 -32 22 -4 56 -19 75 -35 31 -25 89
-49 117 -49 5 0 23 -11 40 -24 53 -39 109 -63 166 -69 32 -4 75 -19 110 -38
30 -18 82 -38 114 -46 32 -7 78 -24 101 -38 24 -14 56 -25 72 -25 29 0 42 -6
105 -47 21 -14 50 -23 74 -23 62 -1 118 -17 136 -39 24 -29 61 -41 125 -41 40
0 75 -9 124 -30 38 -17 76 -30 84 -30 9 0 42 -9 73 -20 32 -11 67 -20 79 -20
12 0 47 -12 78 -26 57 -26 197 -54 272 -54 27 0 62 -11 97 -29 60 -32 149 -45
277 -42 90 2 177 -12 285 -44 79 -24 85 -24 455 -22 369 2 376 2 430 25 50 22
64 23 160 18 81 -5 117 -3 155 9 28 9 102 18 164 21 93 5 120 9 139 25 14 11
41 19 61 19 20 0 65 9 99 20 35 11 80 20 100 20 21 0 51 9 67 20 19 13 47 20
76 20 31 0 55 7 72 20 39 31 85 47 154 55 34 4 67 13 74 21 6 8 34 21 62 29
28 8 63 27 79 42 23 22 40 27 107 33 65 6 85 12 111 33 17 15 39 27 49 27 9 0
32 8 51 19 19 10 89 46 154 81 65 34 140 77 165 96 43 32 137 95 207 139 129
82 185 121 256 180 105 86 181 145 188 145 4 0 37 29 74 65 37 36 73 65 81 65
7 0 51 33 97 73 125 109 641 627 667 670 12 20 31 43 40 50 10 6 36 39 57 72
61 95 92 132 195 234 60 60 99 107 103 125 4 17 21 45 37 63 16 19 29 39 29
44 0 6 31 43 68 83 77 79 106 124 117 176 5 25 25 52 71 95 55 52 65 67 73
108 5 28 19 60 34 75 39 42 67 94 67 126 0 22 15 43 65 92 50 49 67 73 76 109
6 26 26 63 43 84 20 24 37 59 45 95 8 35 19 60 31 66 19 10 40 59 40 95 0 12
13 34 30 50 16 15 32 42 35 59 9 43 26 86 35 86 14 0 63 124 67 169 5 49 78
209 125 275 24 34 28 48 28 107 0 61 3 72 30 102 26 30 30 43 35 118 9 124 22
179 48 203 21 19 25 37 35 159 9 103 17 147 33 178 27 54 51 198 53 319 2 74
8 111 28 170 32 91 53 317 49 540 -2 86 2 165 9 195 8 35 12 169 10 438 l-1
388 32 57 c29 51 32 65 31 132 0 41 4 89 9 107 8 24 6 45 -5 84 -9 29 -16 74
-16 100 0 26 -9 71 -20 101 -15 42 -22 101 -31 278 -6 124 -12 263 -13 310 -1
47 -5 100 -10 119 -34 140 -52 571 -30 711 32 199 35 255 32 565 -3 344 1 376
48 383 11 2 28 15 36 30 9 15 39 49 67 77 43 41 56 49 85 47 32 -2 34 0 44 40
17 67 33 241 35 378 2 122 -18 259 -40 281 -16 16 -70 -46 -92 -107 -12 -32
-57 -129 -99 -214 -42 -85 -85 -174 -94 -198 -19 -48 -40 -54 -64 -16 -13 18
-20 60 -25 147 -9 141 -23 247 -38 297 -6 19 -11 51 -11 72 0 20 -9 65 -20
100 -24 76 -25 117 -4 166 11 27 13 53 9 97 -8 67 18 257 41 314 8 19 14 69
14 115 0 44 9 119 20 166 11 47 20 108 20 136 0 28 7 71 15 95 9 24 20 82 25
130 4 47 16 104 25 125 12 26 18 73 20 144 2 58 10 143 18 190 8 47 12 104 10
128 -3 23 2 70 10 105 42 169 48 230 53 562 11 641 -2 1438 -24 1520 -10 35
-37 159 -73 323 -6 30 -25 79 -41 109 -16 31 -36 86 -44 123 -17 82 -21 95
-50 140 -18 29 -23 53 -26 141 -4 97 -7 109 -32 142 -21 27 -31 55 -37 104 -5
38 -13 93 -17 124 -4 31 -15 67 -23 80 -9 13 -24 48 -33 76 -10 29 -21 55 -26
58 -5 3 -34 55 -65 116 -63 126 -86 160 -167 244 -56 58 -116 146 -143 213 -8
18 -21 35 -29 38 -22 8 -38 76 -40 164 -1 72 1 77 38 130 l38 55 -4 130 c-3
116 -6 135 -27 170 -13 22 -31 54 -41 70 -9 17 -40 61 -68 99 -59 78 -63 104
-36 211 10 39 17 136 21 280 5 205 4 225 -16 296 -11 41 -21 92 -21 112 0 22
-13 62 -29 95 -16 32 -32 83 -36 115 -5 36 -17 72 -33 95 -14 20 -33 59 -43
86 -10 27 -25 56 -34 65 -9 9 -26 30 -38 48 -66 95 -125 161 -250 283 -76 74
-146 139 -155 144 -9 5 -36 25 -58 45 -23 20 -64 52 -90 71 -94 66 -155 122
-174 160 -36 71 -66 108 -187 228 -90 89 -135 126 -179 147 -32 15 -81 49
-109 76 -27 27 -88 71 -135 100 -47 28 -94 59 -105 69 -11 10 -54 34 -95 53
-52 24 -96 54 -144 100 -52 50 -78 67 -107 72 -21 4 -55 20 -74 35 -20 16 -61
36 -91 45 -38 11 -69 30 -101 59 -25 24 -63 49 -84 55 -21 6 -60 28 -86 48
-26 20 -84 54 -128 75 -44 21 -92 47 -106 59 -18 14 -47 22 -100 27 -54 6 -83
14 -103 29 -15 12 -51 29 -80 37 -29 9 -61 25 -71 36 -10 11 -44 28 -74 36
-31 9 -69 23 -84 31 -15 7 -64 23 -109 34 -44 11 -90 26 -102 34 -11 7 -48 21
-81 30 -33 9 -84 25 -113 36 -29 10 -67 19 -85 19 -20 0 -53 12 -80 30 -53 33
-110 49 -176 50 -26 0 -66 10 -96 25 -52 24 -177 45 -274 45 -27 0 -66 10 -99
26 -63 30 -131 41 -312 53 -82 6 -144 16 -180 29 -40 14 -94 22 -199 27 -79 3
-155 11 -168 16 -13 5 -78 9 -143 9 -65 0 -131 5 -147 11 -92 37 -1040 58
-1723 38z m5480 -5325 c204 -16 310 -35 473 -85 159 -49 221 -81 306 -161 42
-39 110 -97 151 -128 117 -90 271 -261 336 -372 83 -142 144 -247 163 -283 12
-22 38 -69 58 -105 19 -36 44 -89 54 -119 10 -29 27 -67 38 -85 11 -17 26 -59
34 -94 8 -34 26 -79 41 -100 16 -24 31 -66 40 -112 8 -41 23 -100 34 -130 11
-30 28 -89 37 -130 9 -41 23 -102 31 -135 7 -33 18 -139 24 -235 5 -96 14
-204 20 -240 6 -36 9 -85 6 -110 -4 -25 -1 -61 6 -80 8 -22 15 -143 20 -325
12 -449 26 -800 37 -915 6 -58 14 -148 20 -200 5 -52 14 -113 21 -135 8 -25
10 -68 7 -114 -4 -49 -1 -88 8 -115 7 -23 16 -77 19 -121 4 -44 12 -111 17
-150 6 -38 13 -142 17 -230 4 -88 11 -166 16 -174 5 -8 4 -35 -4 -67 -11 -45
-10 -68 3 -149 9 -52 14 -102 11 -110 -3 -8 6 -49 20 -92 16 -51 29 -121 36
-203 5 -69 15 -172 21 -230 6 -58 11 -130 10 -161 -1 -31 5 -74 13 -95 11 -28
16 -92 19 -219 4 -140 11 -210 31 -314 14 -74 25 -139 24 -145 -4 -25 15 -146
34 -216 14 -49 23 -123 28 -215 5 -96 12 -152 23 -177 10 -21 17 -52 17 -70 0
-18 5 -51 11 -73 24 -86 91 -506 99 -620 5 -66 16 -149 25 -185 15 -60 36
-402 36 -595 0 -125 -20 -577 -30 -685 -35 -365 -43 -433 -56 -500 -8 -41 -15
-94 -15 -117 0 -57 -56 -386 -81 -475 -11 -40 -31 -122 -44 -183 -14 -60 -29
-120 -35 -133 -5 -13 -10 -39 -10 -58 0 -20 -17 -71 -39 -117 -21 -46 -43
-106 -50 -135 -6 -29 -19 -69 -29 -90 -11 -20 -25 -59 -31 -87 -7 -27 -26 -71
-42 -96 -16 -25 -32 -61 -35 -80 -4 -19 -15 -50 -24 -69 -10 -19 -31 -78 -48
-131 -17 -53 -40 -111 -50 -130 -11 -19 -25 -52 -32 -74 -14 -47 -86 -198
-111 -236 -10 -14 -23 -47 -29 -73 -6 -26 -41 -108 -79 -184 -38 -75 -72 -151
-76 -169 -3 -17 -19 -50 -35 -72 -16 -21 -45 -72 -66 -113 -20 -40 -51 -93
-69 -118 -18 -25 -51 -84 -74 -132 -24 -48 -60 -106 -80 -130 -21 -24 -46 -58
-56 -77 -9 -19 -61 -100 -114 -180 -54 -80 -124 -186 -156 -236 -71 -108 -98
-143 -191 -246 -39 -43 -86 -106 -104 -140 -21 -39 -44 -68 -66 -81 -19 -11
-45 -38 -58 -60 -28 -47 -115 -143 -318 -352 -81 -83 -160 -168 -175 -188 -16
-20 -46 -50 -69 -67 -23 -16 -51 -44 -62 -63 -12 -19 -38 -46 -59 -61 -21 -15
-71 -60 -112 -99 -41 -40 -88 -84 -106 -98 -18 -14 -77 -61 -131 -105 -55 -44
-126 -96 -159 -114 -33 -19 -76 -47 -95 -64 -19 -17 -62 -43 -95 -58 -58 -26
-171 -91 -227 -131 -15 -10 -51 -27 -80 -37 -66 -24 -133 -52 -223 -96 -71
-35 -260 -105 -350 -131 -27 -7 -97 -29 -155 -48 -153 -50 -302 -82 -516 -111
-326 -43 -362 -45 -684 -44 -173 1 -345 1 -382 0 -37 -1 -143 10 -235 24 -92
14 -191 25 -219 25 -29 0 -105 13 -170 29 -66 16 -139 32 -164 36 -25 3 -76
17 -115 30 -38 12 -95 28 -125 35 -30 7 -75 23 -100 35 -25 12 -65 25 -88 29
-24 4 -62 16 -85 27 -23 12 -66 30 -96 40 -30 11 -83 35 -118 54 -35 19 -72
35 -82 35 -10 0 -38 11 -62 23 -24 13 -62 30 -84 37 -22 7 -83 34 -135 61 -52
27 -139 66 -193 87 -54 22 -106 47 -117 57 -10 9 -99 58 -197 107 -98 49 -191
100 -208 112 -16 13 -46 31 -65 41 -19 10 -51 30 -70 45 -19 16 -53 33 -76 39
-22 6 -53 25 -69 42 -17 17 -64 48 -105 69 -41 21 -88 52 -105 70 -16 17 -57
44 -90 59 -33 15 -73 42 -90 60 -16 18 -43 39 -60 48 -42 22 -169 117 -242
182 -91 82 -134 116 -174 140 -19 11 -43 37 -52 56 -12 26 -30 41 -61 55 -27
11 -54 33 -70 56 -14 21 -46 50 -70 66 -25 15 -57 46 -70 67 -14 22 -37 48
-52 58 -15 10 -46 37 -70 61 -24 23 -49 42 -55 42 -21 0 -701 690 -744 754
-22 33 -59 73 -83 90 -23 17 -58 55 -78 83 -19 29 -45 60 -57 68 -13 8 -33 32
-44 52 -12 21 -38 54 -58 73 -20 19 -47 55 -60 80 -13 25 -39 61 -59 79 -20
19 -36 41 -36 48 0 8 -20 36 -45 62 -25 26 -45 56 -45 65 0 9 -20 39 -45 65
-25 26 -45 57 -45 67 0 11 -25 57 -56 102 -30 46 -64 104 -75 129 -11 25 -43
82 -73 127 -29 44 -62 102 -73 127 -11 25 -37 70 -57 99 -20 29 -36 59 -36 67
0 7 -20 55 -45 106 -24 51 -52 117 -61 147 -9 30 -24 66 -34 80 -9 14 -20 34
-23 45 -13 47 -66 163 -91 199 -19 28 -26 52 -26 84 0 29 -6 52 -17 64 -9 11
-20 46 -24 80 -5 42 -20 86 -47 137 -50 98 -85 202 -87 268 -2 36 -12 67 -34
106 -27 47 -31 64 -31 126 0 47 -6 83 -16 103 -23 44 -54 161 -54 203 0 20 -8
50 -17 68 -10 18 -20 64 -24 102 -11 108 -26 202 -35 217 -10 14 -24 153 -29
290 -2 48 -9 96 -15 107 -5 11 -10 81 -10 161 0 109 -4 148 -16 172 -13 25
-15 61 -13 197 3 149 1 169 -16 195 -17 26 -19 47 -16 261 2 198 0 238 -13
264 -11 21 -18 66 -21 138 -2 60 -8 160 -14 223 -6 63 -14 171 -19 240 -4 69
-13 135 -20 147 -7 12 -12 51 -12 88 0 46 -6 78 -20 105 -16 32 -19 51 -14 93
5 40 2 62 -10 85 -9 17 -16 48 -16 69 0 21 -7 59 -15 86 -8 26 -12 53 -9 61 3
7 -2 42 -10 77 -8 34 -13 81 -11 103 2 25 -4 58 -16 84 -11 26 -16 54 -13 72
5 20 0 38 -15 58 -17 24 -21 45 -21 100 0 38 -6 85 -14 104 -8 19 -15 53 -14
75 0 22 -5 49 -11 61 -6 11 -11 40 -11 64 0 56 -24 188 -38 215 -7 12 -12 34
-12 48 0 17 -11 35 -30 52 -29 24 -30 28 -30 104 0 60 -5 88 -20 116 -11 21
-20 55 -20 76 0 30 -7 45 -30 67 -18 17 -30 38 -30 53 0 13 -7 42 -16 63 -25
61 -15 291 16 359 20 45 23 74 31 270 24 603 40 916 48 965 5 30 12 136 16
235 4 111 14 219 26 281 10 56 30 179 44 275 26 180 52 289 112 469 43 130
126 312 165 362 16 21 35 56 43 79 8 22 24 52 35 67 12 15 44 63 73 107 120
185 211 293 415 493 80 78 170 156 218 188 46 29 86 59 90 65 10 17 328 167
410 194 40 13 89 32 110 43 41 20 258 93 407 137 48 14 153 37 233 50 80 13
180 34 222 45 42 12 162 30 267 41 104 11 222 26 260 34 126 27 617 40 965 26
168 -7 514 -16 770 -21 256 -5 605 -12 775 -15 296 -7 360 -4 755 25 343 26
1042 101 1155 125 39 8 153 24 255 35 102 12 217 28 255 36 39 9 129 26 200
39 72 13 162 31 200 39 39 9 115 25 170 36 55 11 120 25 145 31 25 6 76 17
113 25 38 7 72 16 76 18 4 3 47 10 97 16 49 7 125 21 169 32 44 11 134 26 200
33 66 8 221 28 345 45 367 51 559 55 970 24z"/>
<path d="M8955 13090 c-104 -5 -255 -20 -390 -40 -203 -30 -237 -38 -441 -105
-122 -40 -239 -82 -260 -93 -22 -11 -59 -25 -84 -32 -49 -13 -226 -102 -425
-213 -133 -73 -377 -237 -398 -267 -7 -9 -67 -65 -135 -124 -67 -59 -133 -127
-147 -150 -46 -79 -27 -164 48 -220 21 -15 47 -22 103 -24 70 -4 81 -2 147 31
40 20 99 57 132 82 33 25 82 63 109 83 90 68 260 171 376 227 63 31 153 76
200 100 163 83 446 184 650 230 186 43 514 78 735 79 476 2 1000 -73 1420
-204 158 -50 278 -32 375 56 74 67 76 176 2 249 -44 44 -190 117 -282 140 -35
9 -73 21 -83 26 -10 6 -93 23 -185 38 -92 16 -216 38 -277 50 -249 47 -426 74
-530 82 -128 9 -418 9 -660 -1z"/>
<path d="M14613 12415 c-74 -32 -81 -107 -21 -235 40 -85 170 -233 242 -275
65 -38 227 -93 297 -101 69 -7 129 -27 129 -42 0 -15 28 -23 109 -33 68 -8
101 -21 101 -39 0 -16 -69 -18 -175 -5 -60 7 -184 16 -275 20 -184 8 -269 -4
-390 -52 -105 -41 -117 -50 -162 -115 -33 -49 -43 -74 -46 -115 -3 -30 -8 -56
-13 -59 -5 -3 -9 -33 -9 -67 0 -78 36 -162 75 -177 44 -17 85 -12 117 15 16
14 39 25 51 25 12 0 42 9 66 20 24 11 62 23 85 26 22 4 56 16 75 27 37 22 55
24 616 47 266 10 483 9 504 -5 23 -14 -10 -24 -115 -35 -55 -6 -126 -20 -159
-30 -33 -10 -76 -21 -95 -24 -86 -14 -329 -209 -399 -321 -17 -27 -54 -73 -81
-102 -28 -29 -50 -58 -50 -64 0 -13 -28 -51 -95 -127 -27 -32 -72 -90 -100
-131 -27 -40 -74 -103 -103 -139 -28 -37 -62 -88 -75 -113 -13 -26 -35 -60
-49 -77 -14 -17 -29 -50 -33 -72 -5 -31 -14 -44 -35 -55 -17 -9 -34 -29 -41
-50 -16 -44 -24 -44 -39 0 -17 50 -66 85 -122 85 -56 0 -74 -15 -81 -66 -3
-23 -15 -56 -28 -74 -23 -30 -24 -40 -24 -183 0 -144 1 -154 24 -191 14 -22
24 -52 23 -67 -3 -42 84 -166 143 -205 44 -29 63 5 74 133 7 67 13 89 35 117
18 25 30 55 36 98 9 71 33 143 79 238 17 36 31 73 31 82 0 9 16 30 36 46 28
23 37 39 41 73 7 56 14 64 69 79 36 10 48 10 53 1 5 -7 11 -85 14 -174 8 -189
40 -356 82 -419 14 -22 41 -71 60 -111 64 -133 250 -328 420 -442 58 -38 64
-40 155 -43 52 -2 133 1 180 7 47 7 130 16 186 20 66 6 114 16 140 29 88 44
250 92 312 92 53 0 84 11 69 26 -2 2 -35 11 -73 18 -95 19 -104 24 -104 55 0
21 17 41 76 91 42 36 106 91 142 122 37 32 97 79 134 104 58 40 71 46 101 40
59 -11 71 -27 71 -90 -2 -91 -68 -206 -155 -268 -21 -15 -22 -19 -9 -28 8 -6
36 -9 61 -7 54 4 120 51 140 98 6 17 19 35 28 42 52 38 198 306 226 415 8 31
22 79 31 106 14 41 16 77 11 205 -3 86 -13 212 -23 281 -14 110 -23 138 -71
250 -31 69 -67 141 -82 160 -14 19 -35 49 -46 67 -32 51 -135 154 -239 238
-107 86 -126 107 -119 136 7 25 41 33 111 25 31 -4 93 -10 137 -14 69 -6 84
-11 109 -35 29 -27 35 -28 138 -31 29 -1 44 -9 75 -42 34 -37 88 -64 129 -64
6 0 21 -11 34 -24 12 -14 42 -32 66 -40 93 -31 296 -223 349 -328 10 -18 29
-45 43 -61 59 -63 149 -247 158 -323 8 -64 28 -84 86 -84 27 0 47 8 72 31 40
35 41 36 60 146 8 45 21 92 30 105 9 12 16 37 16 54 0 27 -14 46 -91 121 -49
48 -129 127 -177 174 -95 95 -258 212 -336 242 -28 10 -76 38 -108 62 -32 24
-79 51 -105 61 -72 26 -124 51 -160 78 -23 17 -52 25 -104 30 -91 9 -119 20
-119 46 0 32 43 42 185 44 122 1 133 -1 185 -26 30 -14 84 -31 119 -38 97 -17
251 4 251 35 0 24 -73 74 -140 96 -73 24 -96 40 -87 62 6 16 16 18 227 36 126
11 213 37 247 74 12 12 40 57 62 100 46 88 59 159 42 224 -10 35 -17 43 -47
53 -21 7 -52 9 -73 6 -20 -4 -92 -11 -161 -16 -69 -6 -152 -14 -185 -18 -142
-21 -611 2 -770 37 -50 11 -137 24 -195 30 -58 6 -148 19 -200 30 -52 11 -133
24 -180 31 -47 6 -130 24 -185 39 -55 16 -137 36 -182 45 -46 9 -104 26 -129
37 -26 11 -142 44 -258 73 -116 30 -223 59 -237 64 -15 6 -100 32 -189 57 -89
26 -178 54 -198 62 -93 39 -270 54 -329 28z m1058 -1760 c29 -22 95 -120 111
-166 33 -94 -33 -237 -132 -287 -77 -38 -152 -37 -239 2 -69 32 -78 45 -100
141 -10 43 -9 62 8 129 17 66 27 86 61 121 65 66 112 86 195 83 50 -2 77 -9
96 -23z"/>
<path d="M9220 10519 c-36 -4 -92 -15 -125 -23 -33 -8 -100 -23 -150 -31 -49
-9 -132 -32 -184 -52 -52 -19 -116 -42 -144 -50 -27 -8 -65 -23 -86 -33 -20
-10 -65 -30 -100 -45 -65 -27 -86 -39 -314 -184 -170 -108 -210 -138 -316
-241 -55 -53 -103 -111 -129 -156 -23 -39 -56 -89 -74 -111 -154 -188 -186
-246 -198 -352 -4 -37 -15 -81 -24 -98 -31 -61 -15 -243 25 -275 12 -10 34
-18 50 -18 36 0 55 34 74 136 17 86 34 131 68 176 14 18 28 48 32 66 4 19 20
48 36 67 16 18 35 51 43 73 24 66 101 158 317 374 205 205 265 253 350 283 24
9 60 27 79 40 20 14 57 28 83 31 71 10 71 -11 0 -95 -88 -104 -144 -189 -175
-264 -16 -37 -37 -82 -47 -100 -11 -17 -22 -59 -26 -92 -3 -33 -16 -78 -28
-100 -20 -37 -22 -54 -22 -220 0 -159 3 -188 23 -252 12 -39 25 -93 28 -120 5
-41 51 -157 112 -283 9 -19 31 -51 48 -70 17 -19 41 -50 54 -69 13 -19 44 -55
69 -80 107 -109 183 -154 321 -189 70 -18 97 -19 390 -12 173 5 378 14 456 20
105 9 154 10 193 1 67 -14 147 -14 174 1 27 14 219 206 296 296 71 83 139 182
153 225 6 18 22 46 34 63 13 16 28 55 34 85 6 29 23 85 37 122 l27 68 -23 217
c-33 323 -40 362 -68 412 -14 25 -33 68 -43 97 -36 102 -240 337 -353 408 -51
31 -58 48 -28 65 27 14 155 -11 182 -36 11 -10 47 -24 80 -31 36 -7 73 -23 96
-41 21 -16 53 -34 70 -40 37 -12 77 -41 178 -125 100 -85 285 -265 320 -312
57 -77 108 -160 121 -198 7 -21 27 -57 43 -80 16 -23 40 -76 52 -117 25 -86
43 -126 70 -156 13 -13 22 -47 29 -100 16 -129 38 -162 69 -99 22 45 27 119
18 265 -7 110 -15 152 -39 225 -59 173 -175 365 -287 476 -36 36 -78 79 -92
95 -35 38 -161 151 -210 186 -64 47 -257 158 -298 173 -21 7 -57 23 -79 34
-129 66 -453 147 -680 170 -118 13 -495 12 -592 0z m-221 -630 c45 -9 57 -18
111 -80 l60 -70 0 -99 0 -99 -55 -64 c-82 -97 -166 -120 -286 -78 -92 32 -108
42 -151 100 -34 45 -43 65 -46 109 -4 43 -1 59 15 81 11 14 30 45 41 67 11 23
38 56 58 74 75 66 146 82 253 59z m1275 -1193 c41 -17 60 -63 47 -116 -24 -92
-80 -209 -117 -241 -11 -9 -48 -32 -84 -50 -56 -29 -76 -34 -155 -37 -141 -6
-206 25 -175 83 24 44 189 207 275 271 159 118 151 114 209 90z"/>
<path d="M14578 7154 c-3 -3 0 -22 7 -42 95 -273 136 -441 142 -587 5 -129 2
-146 -55 -280 -49 -116 -108 -192 -203 -262 -196 -145 -376 -231 -537 -258
-386 -63 -676 -38 -921 81 -106 52 -188 125 -252 224 -67 106 -162 245 -183
268 -89 99 -161 45 -173 -130 -8 -125 29 -272 115 -448 58 -119 74 -143 137
-205 121 -119 268 -178 540 -220 167 -25 428 -32 512 -12 37 8 100 18 138 22
71 6 187 34 352 86 124 38 215 100 320 218 97 109 207 269 234 342 11 28 30
72 43 98 13 25 29 73 36 106 6 33 18 83 25 110 24 88 28 267 10 369 -38 208
-119 390 -215 480 -48 45 -61 52 -72 40z"/>
<path d="M15245 4826 c-44 -13 -125 -33 -180 -46 -55 -12 -136 -31 -180 -41
-44 -10 -109 -23 -145 -29 -36 -6 -103 -19 -150 -29 -170 -39 -266 -53 -690
-106 -175 -22 -483 -65 -497 -70 -6 -2 -109 -11 -230 -19 -120 -9 -346 -25
-503 -37 -360 -26 -728 -38 -1178 -38 -256 -1 -385 -5 -470 -16 -147 -19 -152
-21 -152 -50 0 -31 23 -53 63 -59 18 -3 70 -12 117 -20 47 -8 168 -20 270 -26
143 -10 193 -16 220 -31 19 -10 55 -20 80 -22 25 -3 95 -10 155 -16 145 -15
539 -48 795 -67 184 -13 228 -13 425 1 121 8 238 20 260 25 22 5 110 15 195
20 85 6 180 18 210 27 30 8 102 19 160 24 189 16 230 24 257 53 16 17 34 26
56 26 58 1 187 27 213 45 27 18 100 39 174 50 25 3 77 22 116 41 38 18 95 38
125 44 29 6 79 26 109 44 30 19 84 41 120 50 35 9 85 30 111 46 25 17 67 36
92 44 26 8 60 25 76 38 19 16 47 27 81 31 100 12 164 67 134 115 -18 27 -140
26 -239 -2z"/>
<path d="M4196 6251 c-9 -14 4 -40 26 -52 28 -15 32 -6 13 30 -16 31 -29 39
-39 22z"/>
<path d="M4260 6168 c0 -25 39 -75 140 -177 98 -100 104 -104 151 -109 27 -2
49 -1 49 4 0 16 -138 130 -189 158 -10 5 -25 22 -34 37 -8 16 -27 31 -41 35
-14 3 -26 12 -26 19 0 12 -31 45 -43 45 -4 0 -7 -6 -7 -12z"/>
</g>
</svg>
